# xmcd CD database file
#
# Track frame offsets:
#	150
#	22494
#	46387
#	65792
#	92501
#	118051
#	145584
#	167356
#	201733
#	222766
#
# Disc length: 3298 seconds
#
# Revision: 0
# Processed by: cddbd v1.5.1PL2 Copyright (c) Steve Scherf et al.
# Submitted via: CDex 1.51
#
DISCID=970ce00a
DTITLE=Diverse - Secondhand Smoke - A Tribute to Frank Marino
DYEAR=2005
DGENRE=Blues
TTITLE0=In My Ways
TTITLE1=Dragonfly
TTITLE2=Stay With Me
TTITLE3=It´s Begun To Rain
TTITLE4=He´s Calling
TTITLE5=Poppy
TTITLE6=Babylon Revisited
TTITLE7=Try For Freedom
TTITLE8=The Answer
TTITLE9=The World Anthem
EXTD=YEAR: 2005
EXTT0=
EXTT1=
EXTT2=
EXTT3=
EXTT4=
EXTT5=
EXTT6=
EXTT7=
EXTT8=
EXTT9=
PLAYORDER=
